<?xml version="1.0" standalone="no"?>
<!DOCTYPE svg PUBLIC "-//W3C//DTD SVG 20010904//EN"
 "http://www.w3.org/TR/2001/REC-SVG-20010904/DTD/svg10.dtd">
<svg version="1.0" xmlns="http://www.w3.org/2000/svg"
 width="208.000000pt" height="242.000000pt" viewBox="0 0 208.000000 242.000000"
 preserveAspectRatio="xMidYMid meet">
<metadata>
Created by potrace 1.16, written by Peter Selinger 2001-2019
</metadata>
<g transform="translate(0.000000,242.000000) scale(0.100000,-0.100000)"
fill="#000000" stroke="none">
<path d="M1653 2360 c-46 -27 -66 -72 -61 -132 12 -122 156 -165 237 -72 27
30 31 42 31 91 0 51 -3 58 -39 94 -34 35 -44 39 -87 39 -31 0 -61 -7 -81 -20z"/>
<path d="M124 2126 c-38 -38 -43 -70 -19 -116 31 -59 107 -69 156 -21 48 49
38 125 -21 156 -46 24 -78 19 -116 -19z"/>
<path d="M1368 1483 c-13 -3 -18 -15 -18 -44 0 -35 -2 -39 -26 -39 -33 0 -30
-33 4 -38 21 -3 22 -8 22 -98 0 -122 15 -160 64 -170 45 -8 66 0 66 24 0 15
-6 18 -24 15 -41 -8 -56 28 -56 134 l0 93 40 0 c33 0 40 3 40 20 0 17 -7 20
-40 20 l-40 0 0 45 c0 25 -3 44 -7 44 -5 -1 -16 -3 -25 -6z"/>
<path d="M750 1403 c-8 -3 -27 -17 -42 -31 l-28 -26 0 27 c0 20 -5 27 -20 27
-19 0 -20 -7 -20 -215 l0 -215 25 0 c25 0 25 1 25 80 l0 80 33 -20 c62 -38
145 -14 180 53 23 45 24 134 2 177 -28 54 -100 83 -155 63z m91 -62 c26 -26
29 -36 29 -91 0 -55 -3 -65 -29 -91 -40 -39 -82 -39 -122 0 -25 25 -29 37 -29
83 1 60 16 95 51 114 38 21 68 16 100 -15z"/>
<path d="M1621 1392 c-54 -27 -74 -63 -79 -137 -4 -52 0 -70 17 -98 31 -50 80
-71 152 -64 67 6 80 12 72 33 -4 11 -16 13 -54 8 -60 -8 -105 9 -124 47 -30
56 -26 59 93 59 l108 0 -6 48 c-8 59 -26 88 -66 107 -42 20 -71 19 -113 -3z"/>
<path d="M1969 1381 l-29 -29 0 24 c0 19 -5 24 -25 24 l-25 0 0 -150 0 -150
24 0 c23 0 24 2 28 106 3 102 5 107 31 130 16 13 37 24 48 24 14 0 19 7 19 25
0 35 -34 33 -71 -4z"/>
<path d="M108 1226 c-3 -154 -5 -176 -22 -195 -11 -12 -27 -21 -38 -21 -11 0
-18 -7 -18 -20 0 -45 93 -9 116 45 10 25 14 79 14 200 l0 165 -24 0 -25 0 -3
-174z"/>
<path d="M270 1295 c0 -68 5 -118 14 -139 28 -68 95 -85 160 -41 34 23 36 23
36 5 0 -15 7 -20 25 -20 l25 0 0 150 0 150 -25 0 c-25 0 -25 0 -25 -95 0 -53
-5 -106 -12 -121 -16 -35 -62 -55 -99 -42 -37 13 -49 52 -49 164 0 94 0 94
-25 94 l-25 0 0 -105z"/>
<path d="M987 1358 c9 -24 36 -90 59 -148 39 -97 41 -107 28 -132 -8 -15 -30
-39 -49 -54 -19 -14 -35 -32 -35 -40 0 -44 70 -11 111 54 23 37 149 339 149
358 0 3 -12 4 -27 2 -24 -3 -29 -13 -66 -121 l-40 -118 -45 120 c-42 116 -45
121 -73 121 l-29 0 17 -42z"/>
</g>
</svg>
