<?xml version="1.0" standalone="no"?>
<!DOCTYPE svg PUBLIC "-//W3C//DTD SVG 20010904//EN"
 "http://www.w3.org/TR/2001/REC-SVG-20010904/DTD/svg10.dtd">
<svg version="1.0" xmlns="http://www.w3.org/2000/svg"
 width="860.000000pt" height="434.000000pt" viewBox="0 0 860.000000 434.000000"
 preserveAspectRatio="xMidYMid meet">
<metadata>
Created by potrace 1.16, written by Peter Selinger 2001-2019
</metadata>
<g transform="translate(0.000000,434.000000) scale(0.100000,-0.100000)"
fill="#000000" stroke="none">
<path d="M4687 3919 c-20 -5 -60 -21 -89 -35 -63 -32 -172 -138 -164 -159 3
-10 -1 -15 -12 -15 -13 0 -14 -2 -4 -9 10 -6 29 8 64 46 87 91 225 142 310
114 20 -7 54 -30 77 -53 l41 -42 22 21 c46 42 88 56 149 50 82 -7 137 -40 174
-104 17 -29 33 -52 37 -53 4 0 28 15 53 34 89 68 245 71 395 7 120 -51 160
-95 180 -195 22 -111 62 -151 190 -187 185 -51 265 -139 311 -342 27 -118 49
-160 112 -216 130 -116 194 -188 229 -256 56 -109 96 -248 108 -377 14 -142 6
-215 -33 -303 -44 -100 -44 -194 2 -325 18 -52 37 -129 41 -170 l9 -75 -4 85
c-2 59 -13 115 -34 184 -42 134 -41 174 11 294 l42 97 0 145 c0 116 -5 164
-23 239 -53 215 -125 337 -271 456 -86 70 -115 117 -136 221 -30 145 -97 261
-187 323 -23 16 -89 43 -146 61 -124 38 -153 62 -170 138 -6 29 -11 59 -11 66
0 24 -58 94 -105 126 -26 18 -83 46 -128 62 -72 27 -95 31 -192 32 -113 1
-129 -3 -214 -55 -19 -11 -25 -11 -28 -1 -11 29 -54 69 -99 92 -39 20 -64 25
-124 25 -75 0 -81 -2 -145 -49 -9 -7 -24 0 -49 22 -36 31 -90 52 -137 52 -42
0 -121 -27 -173 -60 -26 -17 -50 -29 -52 -27 -8 8 64 57 113 76 103 40 173 36
249 -15 30 -21 41 -24 54 -15 92 68 254 54 342 -30 39 -37 43 -38 64 -24 98
64 319 57 472 -15 121 -56 173 -116 198 -226 19 -88 37 -105 140 -130 139 -34
232 -101 301 -216 30 -49 45 -91 88 -250 12 -46 25 -66 68 -105 183 -169 232
-234 286 -381 46 -124 62 -216 65 -357 3 -162 -4 -205 -48 -304 -43 -95 -45
-129 -10 -247 14 -49 32 -120 40 -159 l13 -70 -4 65 c-3 36 -16 106 -30 155
-14 50 -25 106 -25 125 0 20 20 79 47 140 l47 105 0 185 c0 170 -2 193 -27
285 -15 55 -50 146 -78 202 -52 104 -100 162 -235 283 -48 44 -51 49 -78 155
-64 250 -185 380 -403 435 -41 10 -80 24 -88 30 -8 6 -19 37 -26 68 -6 31 -19
73 -29 92 -43 84 -181 171 -322 205 -114 27 -282 16 -356 -24 -19 -10 -27 -8
-55 13 -98 75 -229 92 -326 44 -54 -26 -55 -26 -80 -9 -51 37 -121 47 -194 30z"/>
<path d="M4138 3766 c-55 -15 -108 -49 -160 -101 l-37 -38 -53 24 c-44 20 -69
24 -153 24 -92 0 -104 -2 -154 -30 -67 -37 -112 -89 -146 -169 l-27 -63 -61
-2 c-123 -3 -272 -103 -332 -222 -18 -35 -32 -86 -41 -147 -7 -51 -18 -100
-24 -107 -7 -8 -32 -27 -56 -42 -24 -15 -44 -31 -44 -34 0 -3 11 -11 24 -17
21 -9 31 -6 74 24 55 39 66 65 77 184 8 83 41 153 102 212 59 58 152 108 202
108 20 0 53 3 73 6 35 6 38 10 60 71 54 152 187 230 342 202 33 -6 77 -19 98
-30 l39 -20 57 58 c77 78 117 97 217 99 l80 2 -70 -7 c-105 -11 -189 -62 -256
-159 l-16 -22 -59 27 c-79 37 -207 40 -269 6 -69 -37 -110 -92 -144 -193 -20
-60 -30 -66 -121 -69 -92 -3 -226 -94 -269 -184 -11 -23 -25 -80 -30 -127 -16
-130 -25 -152 -77 -189 -46 -34 -50 -47 -22 -65 12 -7 27 0 66 32 56 47 67 75
81 219 17 167 120 263 297 278 l80 7 33 94 c53 149 125 201 262 192 47 -4 86
-14 121 -32 l53 -26 25 32 c91 121 183 175 282 166 29 -3 44 -2 36 3 -10 7 -8
9 7 9 l20 1 -20 8 c-40 17 -121 20 -167 7z"/>
<path d="M3568 2600 l3 -330 64 0 64 0 3 161 3 161 28 24 c37 31 81 31 112 -1
24 -24 25 -28 25 -185 l0 -160 71 0 71 0 -4 198 c-3 188 -4 199 -26 230 -32
43 -71 62 -132 62 -52 0 -96 -16 -119 -44 -8 -9 -17 -16 -22 -16 -5 0 -9 52
-9 115 l0 115 -67 0 -68 0 3 -330z"/>
<path d="M4140 2870 l0 -60 70 0 70 0 0 60 0 60 -70 0 -70 0 0 -60z"/>
<path d="M1737 2903 c-4 -3 -7 -147 -7 -320 l0 -313 68 0 67 0 -3 201 c-2 123
1 200 7 197 5 -1 45 -58 90 -125 44 -68 84 -123 88 -123 5 0 43 54 86 120 43
66 82 122 88 125 5 4 9 -71 9 -194 l0 -201 70 0 70 0 -2 318 -3 317 -75 0 -74
0 -79 -125 c-43 -69 -84 -126 -91 -128 -8 -2 -17 5 -20 15 -4 9 -39 68 -78
130 l-71 113 -67 0 c-37 0 -70 -3 -73 -7z"/>
<path d="M2581 2744 c-30 -8 -57 -16 -59 -19 -2 -2 4 -27 13 -55 14 -41 20
-50 34 -44 9 3 51 9 93 11 72 5 78 4 102 -20 14 -14 26 -35 26 -47 0 -19 -4
-20 -37 -13 -53 11 -133 8 -176 -6 -20 -7 -50 -28 -67 -47 -25 -29 -30 -43
-30 -87 0 -59 23 -106 67 -134 42 -28 161 -25 202 5 37 27 41 27 41 2 0 -18 7
-20 68 -20 l67 0 -5 187 c-5 198 -8 209 -57 255 -51 48 -172 62 -282 32z m193
-270 c10 -4 16 -18 16 -39 0 -63 -96 -107 -148 -68 -64 47 -26 113 64 113 29
0 59 -3 68 -6z"/>
<path d="M3176 2745 c-79 -28 -143 -116 -153 -209 -15 -143 86 -262 230 -273
80 -7 134 8 182 50 l39 33 -37 40 -36 39 -40 -22 c-71 -40 -155 -23 -186 37
-22 43 -20 122 6 154 47 59 117 69 173 25 33 -26 44 -22 85 29 l32 41 -35 26
c-19 14 -49 30 -67 35 -48 14 -147 11 -193 -5z"/>
<path d="M4604 2741 c-18 -11 -35 -24 -38 -30 -12 -19 -26 -12 -26 14 0 24 -2
25 -65 25 l-65 0 0 -240 0 -240 65 0 65 0 0 133 c0 72 5 149 10 169 19 68 85
89 137 44 l28 -24 3 -161 4 -161 64 0 64 0 0 185 c0 201 -6 230 -54 275 -38
34 -146 41 -192 11z"/>
<path d="M5105 2749 c-45 -13 -97 -61 -125 -115 -20 -40 -25 -64 -25 -124 0
-85 23 -141 78 -192 56 -50 172 -72 260 -47 36 10 107 62 107 79 0 4 -16 20
-36 35 l-36 28 -45 -23 c-63 -31 -127 -24 -165 19 -15 17 -28 36 -28 41 0 6
69 11 168 12 l167 3 -1 55 c-3 149 -91 240 -229 239 -33 0 -73 -5 -90 -10z
m158 -130 c15 -16 27 -38 27 -49 0 -19 -7 -20 -100 -20 -83 0 -100 3 -100 15
0 26 32 67 65 81 40 18 74 10 108 -27z"/>
<path d="M4140 2510 l0 -240 70 0 70 0 0 240 0 240 -70 0 -70 0 0 -240z"/>
<path d="M4330 2150 l0 -60 70 0 70 0 0 60 0 60 -70 0 -70 0 0 -60z"/>
<path d="M1730 1865 l0 -315 230 0 230 0 0 60 0 59 -157 3 -158 3 -3 253 -2
252 -70 0 -70 0 0 -315z"/>
<path d="M5808 2073 l32 -4 0 -245 0 -244 240 0 240 0 0 -85 0 -85 94 0 c53 0
98 -4 101 -10 17 -27 58 -3 48 28 -6 14 -39 16 -48 2 -3 -5 -46 -10 -96 -10
l-89 0 0 85 0 85 -240 0 -240 0 0 245 0 245 -37 -2 c-37 -1 -37 -1 -5 -5z"/>
<path d="M2450 2041 c-79 -17 -160 -87 -179 -158 -14 -50 -14 -136 0 -184 41
-135 224 -202 359 -131 77 40 83 55 39 96 l-35 34 -40 -24 c-80 -49 -194 -13
-194 60 0 14 22 16 165 16 l165 0 0 50 c0 56 -22 119 -56 166 -42 56 -146 91
-224 75z m115 -137 c14 -15 25 -30 25 -35 0 -4 3 -14 6 -23 5 -14 -7 -16 -101
-16 -94 0 -106 2 -101 16 3 9 6 19 6 23 0 5 11 20 25 35 19 21 33 26 70 26 37
0 51 -5 70 -26z"/>
<path d="M3614 2039 c-18 -5 -46 -25 -63 -44 -32 -37 -44 -33 -39 13 l3 27
-67 0 c-38 0 -68 -3 -68 -7 0 -5 0 -114 0 -243 l0 -236 65 3 65 3 3 120 c4
161 28 207 120 222 l38 6 -3 70 c-2 39 -7 71 -13 73 -5 1 -24 -2 -41 -7z"/>
<path d="M3987 2035 c-22 -7 -49 -23 -61 -34 -30 -28 -36 -26 -36 9 l0 30 -65
0 -65 0 0 -245 0 -245 64 0 65 0 3 161 3 161 28 24 c37 31 81 31 112 -1 14
-13 25 -32 25 -42 1 -10 2 -81 3 -158 l2 -140 68 -3 67 -3 0 186 c0 199 -6
231 -51 272 -21 19 -87 44 -114 43 -5 -1 -27 -7 -48 -15z"/>
<path d="M4837 2040 c-16 -5 -43 -20 -62 -34 l-34 -26 -3 27 c-3 27 -5 28 -70
31 l-68 3 0 -246 0 -245 70 0 70 0 0 160 c0 157 1 161 25 185 33 34 83 34 116
-1 23 -24 24 -32 27 -185 l3 -160 67 3 67 3 0 180 c0 204 -11 249 -69 284 -38
23 -101 33 -139 21z"/>
<path d="M5315 2041 c-109 -28 -165 -104 -165 -226 0 -87 27 -145 89 -188 42
-29 53 -32 122 -32 72 0 80 2 118 33 l41 33 0 -31 c0 -104 -103 -146 -241
-100 -34 12 -63 20 -64 18 -14 -16 -44 -91 -40 -98 23 -37 259 -59 338 -31 55
19 103 65 124 119 15 40 18 79 18 272 l0 225 -67 3 -68 3 0 -30 0 -30 -47 29
c-52 31 -111 43 -158 31z m172 -143 c35 -35 41 -102 14 -145 -38 -60 -138 -65
-188 -10 -46 50 -35 133 21 168 44 28 118 21 153 -13z"/>
<path d="M2911 2024 c-25 -8 -49 -18 -53 -22 -4 -4 -1 -29 8 -55 12 -36 20
-46 33 -43 118 38 211 17 223 -49 3 -19 -2 -19 -97 -17 -81 2 -107 -1 -135
-15 -107 -55 -107 -207 0 -265 49 -27 147 -21 191 11 30 22 44 21 44 -2 0 -8
25 -13 69 -15 l68 -3 -3 178 c-4 172 -5 180 -31 224 -37 63 -98 89 -200 88
-40 -1 -93 -7 -117 -15z m200 -274 c27 -15 24 -47 -10 -81 -53 -53 -161 -34
-161 28 0 41 33 63 96 63 30 0 64 -5 75 -10z"/>
<path d="M4330 1795 l0 -245 70 0 70 0 -2 243 -3 242 -67 3 -68 3 0 -246z"/>
<path d="M2697 1473 c-15 -7 -27 -18 -27 -22 0 -13 84 -65 155 -96 90 -40 169
-54 401 -70 126 -9 227 -21 254 -30 62 -22 128 -65 270 -175 230 -178 394
-257 615 -295 163 -28 375 -5 490 52 l49 25 16 -22 c87 -128 193 -191 362
-216 166 -24 184 -30 305 -109 142 -92 189 -108 291 -103 69 4 85 9 150 47 41
23 92 46 115 51 37 7 38 8 11 9 -18 1 -65 -17 -117 -43 -108 -56 -157 -64
-245 -42 -65 16 -92 31 -254 146 -59 42 -78 48 -247 79 -178 34 -294 114 -338
231 -9 25 -17 46 -19 48 -1 2 -30 -13 -65 -32 -91 -49 -199 -71 -339 -70 -255
2 -466 88 -735 298 -237 186 -294 210 -525 220 -269 13 -350 29 -476 96 -66
35 -73 36 -97 23z"/>
<path d="M3005 1431 l-60 -6 50 -13 c28 -6 111 -17 185 -22 246 -19 299 -28
366 -59 65 -31 179 -110 274 -191 165 -141 375 -244 574 -279 168 -30 378 3
496 79 26 17 50 30 53 30 3 0 11 -18 17 -39 16 -59 69 -132 123 -168 68 -46
140 -70 263 -88 120 -18 165 -36 270 -113 118 -85 147 -97 244 -97 79 0 89 2
140 34 30 18 70 39 90 47 19 7 27 13 18 13 -9 1 -59 -20 -110 -45 -84 -41 -98
-45 -143 -39 -70 9 -142 44 -233 113 -103 80 -142 98 -252 117 -249 43 -347
124 -376 313 -4 23 -9 41 -13 40 -77 -40 -84 -42 -88 -30 -5 14 -39 16 -48 2
-9 -14 -82 -12 -88 3 -3 7 -6 5 -6 -5 -1 -13 9 -18 46 -20 65 -4 66 -23 1 -52
-69 -32 -200 -50 -302 -43 -217 16 -414 105 -651 296 -199 160 -245 188 -352
216 -59 15 -356 19 -488 6z"/>
</g>
</svg>
